HIERARCHY
ROOT simHips
{
  OFFSET 0.341758 90.3769 0.264803
  CHANNELS 6 Xposition Yposition Zposition Zrotation Xrotation Yrotation
  JOINT simSpine
  {
    OFFSET -0.000355721 21.3001 -0.016921
    CHANNELS 3 Zrotation Xrotation Yrotation
    JOINT simLeftArm
    {
      OFFSET 13.5181 21.3012 0
      CHANNELS 3 Zrotation Xrotation Yrotation
      JOINT simLeftForeArm
      {
        OFFSET 24.5783 0 0
        CHANNELS 3 Zrotation Xrotation Yrotation
        JOINT simLeftHand
        {
          OFFSET 24.5783 0 0
          CHANNELS 3 Zrotation Xrotation Yrotation
          End Site
          {
            OFFSET 7.32568 1.52588e-05 0.0169305
          }
        }
      }
    }
    JOINT simHead
    {
      OFFSET 0 27.4458 -0.00489235
      CHANNELS 3 Zrotation Xrotation Yrotation
      End Site
      {
        OFFSET 0 0 0
      }
    }
    JOINT simRightArm
    {
      OFFSET -13.5174 21.3012 0
      CHANNELS 3 Zrotation Xrotation Yrotation
      JOINT simRightForeArm
      {
        OFFSET -24.5783 0 0
        CHANNELS 3 Zrotation Xrotation Yrotation
        JOINT simRightHand
        {
          OFFSET -24.5783 0 0
          CHANNELS 3 Zrotation Xrotation Yrotation
          End Site
          {
            OFFSET -7.32568 1.52588e-05 0.0169305
          }
        }
      }
    }
  }
  JOINT simRightUpLeg
  {
    OFFSET -8.44614 -9.41038 0.835684
    CHANNELS 3 Zrotation Xrotation Yrotation
    JOINT simRightLeg
    {
      OFFSET 0 -40.9639 0
      CHANNELS 3 Zrotation Xrotation Yrotation
      JOINT simRightFoot
      {
        OFFSET 0 -40.9639 0
        CHANNELS 3 Zrotation Xrotation Yrotation
        End Site
        {
          OFFSET 0.50614 -9.67405 14.6709
        }
      }
    }
  }
  JOINT simLeftUpLeg
  {
    OFFSET 8.44614 -9.41038 0.835684
    CHANNELS 3 Zrotation Xrotation Yrotation
    JOINT simLeftLeg
    {
      OFFSET 0 -40.9639 0
      CHANNELS 3 Zrotation Xrotation Yrotation
      JOINT simLeftFoot
      {
        OFFSET 0 -40.9639 0
        CHANNELS 3 Zrotation Xrotation Yrotation
        End Site
        {
          OFFSET -0.50614 -9.67405 14.6709
        }
      }
    }
  }
}
MOTION
Frames:	14
Frame Time:	0.0333333
-30.3571 95.5795 31.9163 -63.3692 -65.269 52.0698 0.317786 3.44308 3.16723 -18.7488 -9.86868 -9.02788 -0.00391736 4.15208e-06 -82.1804 -46.6099 46.1559 21.4715 25.9873 18.0734 -29.9549 31.4231 -40.1869 -27.058 -0.000212453 5.8589e-06 67.4202 -13.6705 -24.1459 -0.296524 -33.3073 -5.45737 -22.579 -26.5426 77.3516 20.2589 -10.8815 -0.127799 -9.84696 94.5154 -46.6982 71.4325 8.94192 39.6714 2.10825 7.38559 -20.1143 32.3523 
-30.7412 94.6941 32.2062 -70.5052 -59.8438 46.3029 -0.924912 2.88159 3.10966 -26.6494 -21.3798 -8.95998 -0.0040059 4.71313e-07 -89.1151 -38.4875 42.3167 20.0117 19.7546 16.1658 -22.8429 31.1662 -42.4526 -18.188 -0.000212865 4.74918e-06 71.8659 -7.24643 -24.1367 2.35242 -22.4295 -4.35246 -28.3537 -173.202 84.3373 167.162 -7.50388 0.909776 -12.2378 99.9728 -49.8363 76.086 10.3541 41.9022 2.64644 7.54453 -19.0771 32.9452 
-31.4838 93.9493 32.2515 -74.4056 -52.0937 43.4687 -1.97148 2.28489 2.48144 -38.0447 -27.9348 -14.2025 -0.00403481 -4.24794e-06 -98.0014 -16.8061 33.4912 14.6151 13.1556 12.9102 -17.5173 31.5266 -46.3867 -8.49194 -0.000213388 2.66617e-06 79.937 -1.32164 -23.4919 5.35444 -13.1362 -6.95499 -38.1634 165.47 72.8033 -172.322 -2.04491 -2.29263 -9.01009 104.506 -53.5115 80.269 11.4856 42.7155 1.51514 9.65993 -18.1771 34.027 
-32.7216 93.3703 32.1767 -74.2928 -42.9389 40.9041 -2.8919 1.84335 2.20916 -50.1597 -29.4427 -21.4409 -0.00399735 -9.24044e-06 -107.625 10.3037 17.253 8.3819 2.59566 8.1731 -11.5559 34.5397 -49.1806 3.30932 -0.000213623 -7.98181e-08 90.2997 3.6417 -22.2417 8.3004 -6.5192 -12.5906 -45.8 159.436 67.5369 -162.701 1.63438 -5.18212 -2.78862 107.681 -55.7518 82.8852 12.4749 45.0088 -0.00977487 13.0935 -18.6542 35.6954 
-34.4672 92.8197 31.8388 -71.3337 -33.1104 35.511 -3.68251 1.55265 2.5256 -59.3206 -28.7012 -27.3903 -0.00388629 -1.35353e-05 -116.329 34.3975 -5.29756 4.51148 -11.5278 1.06155 -4.69309 40.7774 -47.7767 17.3942 -0.00128148 -2.80169e-06 100.58 7.42165 -19.7925 10.2603 -1.31211 -19.4757 -45.8636 154.595 67.7024 -147.833 3.97626 -5.1024 1.73431 106.955 -54.7127 81.4587 13.491 48.2515 -1.62725 16.3203 -19.6936 37.6222 
-36.2101 92.1467 31.1386 -67.3324 -23.6729 27.0481 -3.93909 1.36812 3.00506 -64.2839 -28.4732 -31.2855 -0.00369398 -1.65437e-05 -122.827 51.8312 -27.9598 4.15346 -24.4637 -7.89167 0.868399 46.9007 -41.6128 30.0262 0.0105294 -4.91511e-06 108.791 10.1865 -15.5853 10.4711 5.11795 -25.7546 -38.0577 148.069 71.3029 -136.888 9.92764 -1.55285 2.99046 103.656 -50.061 77.2689 14.6802 51.6948 -3.12795 16.7638 -20.3646 37.5075 
-37.6857 91.5269 30.2205 -62.1512 -15.4521 18.4201 -3.77356 1.36146 3.3417 -65.8298 -29.1444 -32.975 -0.00341285 -1.81369e-05 -126.463 62.6469 -43.2596 7.16463 -32.5617 -15.6764 4.16372 50.1802 -33.4252 38.452 -2.91676e-05 -6.27501e-06 114.283 12.4111 -10.1229 9.30128 11.8927 -28.8483 -26.2196 137.873 75.2404 -128.374 13.9038 2.68006 1.49085 97.6721 -45.3057 71.607 15.3528 53.1084 -3.53111 13.4824 -19.4223 33.5829 
-39.0064 91.2862 29.3407 -54.2941 -8.1084 12.572 -3.64909 1.62943 3.49481 -65.9267 -29.2981 -32.2895 -0.00303572 -1.85757e-05 -127.495 66.5558 -48.5328 10.4974 -36.4194 -19.7089 6.11133 50.501 -26.4821 42.9379 1.74187e-06 -7.07979e-06 117.644 14.0034 -5.31528 8.11399 14.9244 -28.315 -16.4685 115.532 79.0587 -106.815 11.9908 3.94564 -1.48158 87.6278 -43.8277 64.4641 15.3861 52.841 -3.24178 7.73201 -15.5648 26.8414 
-40.5028 91.5302 28.7112 -43.2297 -1.05977 9.94364 -3.9719 2.11932 3.5657 -66.6792 -27.7313 -30.1952 -0.00255587 -1.83635e-05 -126.994 64.1895 -47.426 10.2001 -39.1556 -19.7587 7.07894 48.4573 -21.9782 44.7286 -0.0112895 -7.56158e-06 119.706 13.8654 -3.19217 8.03111 12.9553 -25.3581 -11.5621 63.8048 78.846 -55.1957 9.66211 2.97429 -6.69787 71.1373 -46.4163 54.2438 14.5537 49.7372 -1.99987 1.76926 -9.26994 18.7535 
-42.3698 91.8268 28.2841 -30.3083 4.99279 8.90785 -4.70451 2.64435 3.59172 -68.5324 -25.0415 -28.4207 -0.00196664 -1.79406e-05 -126.006 59.645 -44.3843 6.64236 -42.4078 -17.4605 7.07316 44.9539 -18.9937 45.1282 -0.00979398 -7.83653e-06 120.902 11.1047 -3.97984 8.94947 8.27425 -20.0569 -9.37356 28.9267 68.3443 -20.2036 10.5404 1.27918 -14.1655 48.4513 -50.3382 40.2393 13.4569 44.1773 -1.36415 -3.46632 -2.5416 10.1725 
-44.2288 91.5985 27.908 -18.5271 9.36599 7.49942 -5.26331 2.94278 3.65191 -69.7562 -23.3742 -28.332 -0.00126115 -1.74816e-05 -124.948 55.476 -40.8875 1.95712 -44.5807 -15.1038 6.66855 42.0806 -15.9667 45.7394 0.00100929 -7.90731e-06 121.213 6.00196 -6.0536 9.87131 3.51781 -13.1235 -7.15195 17.7445 53.117 -9.22393 13.5207 -1.49334 -21.6455 27.6701 -54.0998 26.4061 13.5974 42.5746 -3.35212 -7.95157 0.612081 0.945279 
-45.4926 91.121 27.4346 -10.595 12.5766 4.65513 -5.17878 2.80242 3.80533 -68.4704 -24.7557 -30.3894 -0.000432411 -1.69878e-05 -123.825 51.6668 -36.7125 -2.21877 -42.8682 -14.3205 6.74502 42.2226 -12.0125 48.3172 -0.000608239 -7.7458e-06 120.506 -0.430194 -7.98259 10.0787 -0.195343 -6.83451 -4.80971 13.8909 38.3952 -5.98376 16.7395 -4.9308 -26.5954 15.4 -55.5305 16.4962 13.3698 39.7066 -5.55313 -10.8246 2.73126 -7.23882 
-45.9967 90.6176 26.7188 -6.85783 15.2238 0.599879 -4.5457 2.31611 4.02904 -65.164 -29.4149 -33.8762 0.00136846 -1.64791e-05 -122.683 47.6077 -32.0086 -5.33823 -36.6753 -14.9021 8.41763 45.47 -6.92489 53.424 -0.000608424 -7.42332e-06 119.11 -7.25648 -9.89061 9.62503 -2.79003 -7.83219 -4.36198 12.8308 37.4162 -6.78447 17.2624 -17.0193 -26.8059 12.0183 -56.8894 12.3416 13.2846 38.1638 -8.86896 -10.3229 2.63558 -12.1704 
-45.9586 90.712 25.928 -5.7405 17.1407 -3.63131 -3.61098 1.85264 4.24798 -62.2023 -35.3844 -37.6978 0.0295364 -1.60795e-05 -121.796 43.3651 -27.5891 -7.78886 -28.3846 -14.8519 12.0594 49.5938 -1.17068 60.0938 -0.000608648 -7.00571e-06 117.331 -14.0713 -12.4762 8.90034 -3.68845 -10.3149 -5.80899 10.8692 37.3651 -6.02633 19.2171 -19.7819 -25.4417 14.8141 -56.6298 13.3254 12.7737 34.4445 -12.4019 -10.236 3.59698 -13.1068 
